999
"DXF R12 Output" (www.mydxf.blogspot.com)
 0 
SECTION
 2 
HEADER
 9 
$ACADVER
 1 
AC1009
 9 
$EXTMIN
 10 
 0 
 20 
 0 
 9 
$EXTMAX
 10 
 8.5 
 20 
 11 
 0 
ENDSEC
 0 
SECTION
 2 
ENTITIES
0
LINE
8
Layer 1
10
24.643261
20
4.683152
11
21.203682
21
4.683152
0
LINE
8
Layer 1
10
21.203682
20
4.683152
11
21.203682
21
20.507861
0
LINE
8
Layer 1
10
21.203682
20
20.507861
11
24.643261
21
21.455068
0
LINE
8
Layer 1
10
24.643261
20
21.455068
11
24.643261
21
4.683152
0
LINE
8
Layer 1
10
5.865805
20
16.486200
11
5.175328
21
16.589593
0
LINE
8
Layer 1
10
5.175328
20
16.589593
11
4.557555
21
16.883053
0
LINE
8
Layer 1
10
4.557555
20
16.883053
11
4.050021
21
17.341499
0
LINE
8
Layer 1
10
4.050021
20
17.341499
11
3.690264
21
17.939850
0
LINE
8
Layer 1
10
3.690264
20
17.939850
11
3.521553
21
18.617334
0
LINE
8
Layer 1
10
3.521553
20
18.617334
11
3.556263
21
19.300385
0
LINE
8
Layer 1
10
3.556263
20
19.300385
11
3.785587
21
19.944724
0
LINE
8
Layer 1
10
3.785587
20
19.944724
11
4.200718
21
20.506075
0
LINE
8
Layer 1
10
4.200718
20
20.506075
11
4.762069
21
20.921206
0
LINE
8
Layer 1
10
4.762069
20
20.921206
11
5.406409
21
21.150530
0
LINE
8
Layer 1
10
5.406409
20
21.150530
11
6.089459
21
21.185240
0
LINE
8
Layer 1
10
6.089459
20
21.185240
11
6.766944
21
21.016529
0
LINE
8
Layer 1
10
6.766944
20
21.016529
11
7.365295
21
20.656772
0
LINE
8
Layer 1
10
7.365295
20
20.656772
11
7.823740
21
20.149239
0
LINE
8
Layer 1
10
7.823740
20
20.149239
11
8.117200
21
19.531466
0
LINE
8
Layer 1
10
8.117200
20
19.531466
11
8.220594
21
18.840988
0
LINE
8
Layer 1
10
8.220594
20
18.840988
11
8.034843
21
17.924858
0
LINE
8
Layer 1
10
8.034843
20
17.924858
11
7.530119
21
17.176675
0
LINE
8
Layer 1
10
7.530119
20
17.176675
11
6.781935
21
16.671951
0
LINE
8
Layer 1
10
6.781935
20
16.671951
11
5.865805
21
16.486200
0
LINE
8
Layer 1
10
5.865805
20
16.486200
11
5.865805
21
16.486200
0
LINE
8
Layer 1
10
7.709949
20
4.712256
11
7.643562
21
3.483869
0
LINE
8
Layer 1
10
7.643562
20
3.483869
11
7.363345
21
2.286030
0
LINE
8
Layer 1
10
7.363345
20
2.286030
11
6.982034
21
1.506238
0
LINE
8
Layer 1
10
6.982034
20
1.506238
11
6.405554
21
0.857282
0
LINE
8
Layer 1
10
6.405554
20
0.857282
11
5.703451
21
0.417832
0
LINE
8
Layer 1
10
5.703451
20
0.417832
11
4.913306
21
0.169366
0
LINE
8
Layer 1
10
4.913306
20
0.169366
11
2.976559
21
-0.007905
0
LINE
8
Layer 1
10
2.976559
20
-0.007905
11
1.703915
21
0.116449
0
LINE
8
Layer 1
10
1.703915
20
0.116449
11
0.767291
21
0.452470
0
LINE
8
Layer 1
10
0.767291
20
0.452470
11
0.201083
21
0.944594
0
LINE
8
Layer 1
10
0.201083
20
0.944594
11
0.000000
21
1.524031
0
LINE
8
Layer 1
10
0.000000
20
1.524031
11
0.107100
21
2.019743
0
LINE
8
Layer 1
10
0.107100
20
2.019743
11
0.420687
21
2.418322
0
LINE
8
Layer 1
10
0.420687
20
2.418322
11
0.961185
21
2.700593
0
LINE
8
Layer 1
10
0.961185
20
2.700593
11
1.566331
21
2.775509
0
LINE
8
Layer 1
10
1.566331
20
2.775509
11
2.061102
21
2.690842
0
LINE
8
Layer 1
10
2.061102
20
2.690842
11
2.439455
21
2.481821
0
LINE
8
Layer 1
10
2.439455
20
2.481821
11
2.746372
21
2.198718
0
LINE
8
Layer 1
10
2.746372
20
2.198718
11
2.965975
21
1.902385
0
LINE
8
Layer 1
10
2.965975
20
1.902385
11
3.365496
21
1.492281
0
LINE
8
Layer 1
10
3.365496
20
1.492281
11
3.669766
21
1.386448
0
LINE
8
Layer 1
10
3.669766
20
1.386448
11
3.934349
21
1.460531
0
LINE
8
Layer 1
10
3.934349
20
1.460531
11
4.122203
21
1.725114
0
LINE
8
Layer 1
10
4.122203
20
1.725114
11
4.228036
21
2.230468
0
LINE
8
Layer 1
10
4.228036
20
2.230468
11
4.270370
21
3.040092
0
LINE
8
Layer 1
10
4.270370
20
3.040092
11
4.270370
21
15.388180
0
LINE
8
Layer 1
10
4.270370
20
15.388180
11
7.709949
21
16.335387
0
LINE
8
Layer 1
10
7.709949
20
16.335387
11
7.709949
21
4.712256
0
LINE
8
Layer 1
10
12.737026
20
16.060221
11
12.737026
21
8.106856
0
LINE
8
Layer 1
10
12.737026
20
8.106856
11
12.861380
21
7.474503
0
LINE
8
Layer 1
10
12.861380
20
7.474503
11
13.229150
21
6.985024
0
LINE
8
Layer 1
10
13.229150
20
6.985024
11
13.758316
21
6.649004
0
LINE
8
Layer 1
10
13.758316
20
6.649004
11
14.393315
21
6.522004
0
LINE
8
Layer 1
10
14.393315
20
6.522004
11
14.819294
21
6.627837
0
LINE
8
Layer 1
10
14.819294
20
6.627837
11
15.295543
21
6.924170
0
LINE
8
Layer 1
10
15.295543
20
6.924170
11
15.774438
21
7.363378
0
LINE
8
Layer 1
10
15.774438
20
7.363378
11
16.200417
21
7.921648
0
LINE
8
Layer 1
10
16.200417
20
7.921648
11
16.200417
21
16.060221
0
LINE
8
Layer 1
10
16.200417
20
16.060221
11
19.639996
21
16.060221
0
LINE
8
Layer 1
10
19.639996
20
16.060221
11
19.639996
21
4.683152
0
LINE
8
Layer 1
10
19.639996
20
4.683152
11
16.200417
21
4.683152
0
LINE
8
Layer 1
10
16.200417
20
4.683152
11
16.200417
21
5.741484
0
LINE
8
Layer 1
10
16.200417
20
5.741484
11
14.763731
21
4.807506
0
LINE
8
Layer 1
10
14.763731
20
4.807506
11
14.042248
21
4.559448
0
LINE
8
Layer 1
10
14.042248
20
4.559448
11
13.284712
21
4.468840
0
LINE
8
Layer 1
10
13.284712
20
4.468840
11
11.723673
21
4.733423
0
LINE
8
Layer 1
10
11.723673
20
4.733423
11
10.464258
21
5.498068
0
LINE
8
Layer 1
10
10.464258
20
5.498068
11
9.625530
21
6.630483
0
LINE
8
Layer 1
10
9.625530
20
6.630483
11
9.396144
21
7.313511
0
LINE
8
Layer 1
10
9.396144
20
7.313511
11
9.321259
21
8.030127
0
LINE
8
Layer 1
10
9.321259
20
8.030127
11
9.321259
21
16.060221
0
LINE
8
Layer 1
10
9.321259
20
16.060221
11
12.737026
21
16.060221
0
LINE
8
Layer 1
10
27.990236
20
16.486200
11
27.074068
21
16.672191
0
LINE
8
Layer 1
10
27.074068
20
16.672191
11
26.326236
21
17.177459
0
LINE
8
Layer 1
10
26.326236
20
17.177459
11
25.822369
21
17.926236
0
LINE
8
Layer 1
10
25.822369
20
17.926236
11
25.638093
21
18.842750
0
LINE
8
Layer 1
10
25.638093
20
18.842750
11
25.823741
21
19.758988
0
LINE
8
Layer 1
10
25.823741
20
19.758988
11
26.328730
21
20.507009
0
LINE
8
Layer 1
10
26.328730
20
20.507009
11
27.077317
21
21.011157
0
LINE
8
Layer 1
10
27.077317
20
21.011157
11
27.993762
21
21.195775
0
LINE
8
Layer 1
10
27.993762
20
21.195775
11
28.910069
21
21.010471
0
LINE
8
Layer 1
10
28.910069
20
21.010471
11
29.658279
21
20.505763
0
LINE
8
Layer 1
10
29.658279
20
20.505763
11
30.162708
21
19.757364
0
LINE
8
Layer 1
10
30.162708
20
19.757364
11
30.347670
21
18.840988
0
LINE
8
Layer 1
10
30.347670
20
18.840988
11
30.161650
21
17.924218
0
LINE
8
Layer 1
10
30.161650
20
17.924218
11
29.656259
21
17.175740
0
LINE
8
Layer 1
10
29.656259
20
17.175740
11
28.907215
21
16.671190
0
LINE
8
Layer 1
10
28.907215
20
16.671190
11
27.990236
21
16.486200
0
LINE
8
Layer 1
10
27.990236
20
16.486200
11
27.990236
21
16.486200
0
LINE
8
Layer 1
10
33.649666
20
16.486200
11
32.733498
21
16.672191
0
LINE
8
Layer 1
10
32.733498
20
16.672191
11
31.985667
21
17.177459
0
LINE
8
Layer 1
10
31.985667
20
17.177459
11
31.481799
21
17.926236
0
LINE
8
Layer 1
10
31.481799
20
17.926236
11
31.297524
21
18.842750
0
LINE
8
Layer 1
10
31.297524
20
18.842750
11
31.483171
21
19.758988
0
LINE
8
Layer 1
10
31.483171
20
19.758988
11
31.988160
21
20.507009
0
LINE
8
Layer 1
10
31.988160
20
20.507009
11
32.736747
21
21.011157
0
LINE
8
Layer 1
10
32.736747
20
21.011157
11
33.653193
21
21.195775
0
LINE
8
Layer 1
10
33.653193
20
21.195775
11
34.569500
21
21.010471
0
LINE
8
Layer 1
10
34.569500
20
21.010471
11
35.317710
21
20.505763
0
LINE
8
Layer 1
10
35.317710
20
20.505763
11
35.822138
21
19.757364
0
LINE
8
Layer 1
10
35.822138
20
19.757364
11
36.007100
21
18.840988
0
LINE
8
Layer 1
10
36.007100
20
18.840988
11
35.821080
21
17.924218
0
LINE
8
Layer 1
10
35.821080
20
17.924218
11
35.315689
21
17.175740
0
LINE
8
Layer 1
10
35.315689
20
17.175740
11
34.566645
21
16.671190
0
LINE
8
Layer 1
10
34.566645
20
16.671190
11
33.649666
21
16.486200
0
LINE
8
Layer 1
10
33.649666
20
16.486200
11
33.649666
21
16.486200
0
LINE
8
Layer 1
10
30.821274
20
21.388923
11
30.130796
21
21.492316
0
LINE
8
Layer 1
10
30.130796
20
21.492316
11
29.513023
21
21.785776
0
LINE
8
Layer 1
10
29.513023
20
21.785776
11
29.005490
21
22.244222
0
LINE
8
Layer 1
10
29.005490
20
22.244222
11
28.645733
21
22.842573
0
LINE
8
Layer 1
10
28.645733
20
22.842573
11
28.477021
21
23.520057
0
LINE
8
Layer 1
10
28.477021
20
23.520057
11
28.511732
21
24.203108
0
LINE
8
Layer 1
10
28.511732
20
24.203108
11
28.741056
21
24.847447
0
LINE
8
Layer 1
10
28.741056
20
24.847447
11
29.156187
21
25.408798
0
LINE
8
Layer 1
10
29.156187
20
25.408798
11
29.717538
21
25.823929
0
LINE
8
Layer 1
10
29.717538
20
25.823929
11
30.361877
21
26.053253
0
LINE
8
Layer 1
10
30.361877
20
26.053253
11
31.044927
21
26.087963
0
LINE
8
Layer 1
10
31.044927
20
26.087963
11
31.722412
21
25.919252
0
LINE
8
Layer 1
10
31.722412
20
25.919252
11
32.320763
21
25.559495
0
LINE
8
Layer 1
10
32.320763
20
25.559495
11
32.779209
21
25.051962
0
LINE
8
Layer 1
10
32.779209
20
25.051962
11
33.072669
21
24.434189
0
LINE
8
Layer 1
10
33.072669
20
24.434189
11
33.176062
21
23.743711
0
LINE
8
Layer 1
10
33.176062
20
23.743711
11
32.997524
21
22.842161
0
LINE
8
Layer 1
10
32.997524
20
22.842161
11
32.487137
21
22.077848
0
LINE
8
Layer 1
10
32.487137
20
22.077848
11
31.722824
21
21.567461
0
LINE
8
Layer 1
10
31.722824
20
21.567461
11
30.821274
21
21.388923
0
LINE
8
Layer 1
10
30.821274
20
21.388923
11
30.821274
21
21.388923
0
LINE
8
Layer 1
10
26.495342
20
15.356430
11
29.934921
21
16.303637
0
LINE
8
Layer 1
10
29.934921
20
16.303637
11
29.934921
21
4.683152
0
LINE
8
Layer 1
10
29.934921
20
4.683152
11
26.495342
21
4.683152
0
LINE
8
Layer 1
10
26.495342
20
4.683152
11
26.495342
21
15.356430
0
LINE
8
Layer 1
10
37.078662
20
10.548957
11
36.081184
21
10.054187
0
LINE
8
Layer 1
10
36.081184
20
10.054187
11
35.165727
21
9.445646
0
LINE
8
Layer 1
10
35.165727
20
9.445646
11
34.491040
21
8.739209
0
LINE
8
Layer 1
10
34.491040
20
8.739209
11
34.226457
21
7.961335
0
LINE
8
Layer 1
10
34.226457
20
7.961335
11
34.311123
21
7.342211
0
LINE
8
Layer 1
10
34.311123
20
7.342211
11
34.541311
21
6.836858
0
LINE
8
Layer 1
10
34.541311
20
6.836858
11
34.866748
21
6.500837
0
LINE
8
Layer 1
10
34.866748
20
6.500837
11
35.266268
21
6.373837
0
LINE
8
Layer 1
10
35.266268
20
6.373837
11
36.107642
21
6.638420
0
LINE
8
Layer 1
10
36.107642
20
6.638420
11
37.065432
21
7.291940
0
LINE
8
Layer 1
10
37.065432
20
7.291940
11
37.078662
21
10.548957
0
LINE
8
Layer 1
10
40.518241
20
4.683152
11
37.078662
21
4.683152
0
LINE
8
Layer 1
10
37.078662
20
4.683152
11
37.078662
21
5.588026
0
LINE
8
Layer 1
10
37.078662
20
5.588026
11
36.520391
21
5.146172
0
LINE
8
Layer 1
10
36.520391
20
5.146172
11
35.911851
21
4.788985
0
LINE
8
Layer 1
10
35.911851
20
4.788985
11
35.165727
21
4.556152
0
LINE
8
Layer 1
10
35.165727
20
4.556152
11
34.165603
21
4.474131
0
LINE
8
Layer 1
10
34.165603
20
4.474131
11
32.755375
21
4.693735
0
LINE
8
Layer 1
10
32.755375
20
4.693735
11
31.697043
21
5.304922
0
LINE
8
Layer 1
10
31.697043
20
5.304922
11
31.032940
21
6.238900
0
LINE
8
Layer 1
10
31.032940
20
6.238900
11
30.802753
21
7.395128
0
LINE
8
Layer 1
10
30.802753
20
7.395128
11
31.043523
21
8.564585
0
LINE
8
Layer 1
10
31.043523
20
8.564585
11
31.718210
21
9.509146
0
LINE
8
Layer 1
10
31.718210
20
9.509146
11
32.715688
21
10.265853
0
LINE
8
Layer 1
10
32.715688
20
10.265853
11
33.945999
21
10.877040
0
LINE
8
Layer 1
10
33.945999
20
10.877040
11
35.313893
21
11.382394
0
LINE
8
Layer 1
10
35.313893
20
11.382394
11
36.702954
21
11.834830
0
LINE
8
Layer 1
10
36.702954
20
11.834830
11
37.081307
21
11.916851
0
LINE
8
Layer 1
10
37.081307
20
11.916851
11
37.081307
21
13.043975
0
LINE
8
Layer 1
10
37.081307
20
13.043975
11
36.964891
21
13.956786
0
LINE
8
Layer 1
10
36.964891
20
13.956786
11
36.660620
21
14.567973
0
LINE
8
Layer 1
10
36.660620
20
14.567973
11
36.187017
21
14.914577
0
LINE
8
Layer 1
10
36.187017
20
14.914577
11
35.567893
21
15.020410
0
LINE
8
Layer 1
10
35.567893
20
15.020410
11
34.882623
21
14.914577
0
LINE
8
Layer 1
10
34.882623
20
14.914577
11
34.440769
21
14.620889
0
LINE
8
Layer 1
10
34.440769
20
14.620889
11
34.199999
21
14.200202
0
LINE
8
Layer 1
10
34.199999
20
14.200202
11
34.125915
21
13.671036
0
LINE
8
Layer 1
10
34.125915
20
13.671036
11
34.051832
21
13.049266
0
LINE
8
Layer 1
10
34.051832
20
13.049266
11
33.811062
21
12.520100
0
LINE
8
Layer 1
10
33.811062
20
12.520100
11
33.337458
21
12.181434
0
LINE
8
Layer 1
10
33.337458
20
12.181434
11
32.570167
21
12.043851
0
LINE
8
Layer 1
10
32.570167
20
12.043851
11
31.906064
21
12.149684
0
LINE
8
Layer 1
10
31.906064
20
12.149684
11
31.400710
21
12.453955
0
LINE
8
Layer 1
10
31.400710
20
12.453955
11
31.064690
21
12.916975
0
LINE
8
Layer 1
10
31.064690
20
12.916975
11
30.948274
21
13.493766
0
LINE
8
Layer 1
10
30.948274
20
13.493766
11
31.052912
21
14.071194
0
LINE
8
Layer 1
10
31.052912
20
14.071194
11
31.347794
21
14.578556
0
LINE
8
Layer 1
10
31.347794
20
14.578556
11
32.422001
21
15.451680
0
LINE
8
Layer 1
10
32.422001
20
15.451680
11
33.988332
21
16.017888
0
LINE
8
Layer 1
10
33.988332
20
16.017888
11
35.872163
21
16.229554
0
LINE
8
Layer 1
10
35.872163
20
16.229554
11
37.954431
21
16.007304
0
LINE
8
Layer 1
10
37.954431
20
16.007304
11
39.406992
21
15.388180
0
LINE
8
Layer 1
10
39.406992
20
15.388180
11
39.890157
21
14.958278
0
LINE
8
Layer 1
10
39.890157
20
14.958278
11
40.248366
21
14.419806
0
LINE
8
Layer 1
10
40.248366
20
14.419806
11
40.512949
21
13.147162
0
LINE
8
Layer 1
10
40.512949
20
13.147162
11
40.518241
21
4.683152
 0 
ENDSEC
 0 
EOF