<?xml version="1.0" encoding="utf-8"?>
<!-- Generator: Adobe Illustrator 13.0.1, SVG Export Plug-In . SVG Version: 6.00 Build 14948)  -->
<!DOCTYPE svg PUBLIC "-//W3C//DTD SVG 1.1//EN" "http://www.w3.org/Graphics/SVG/1.1/DTD/svg11.dtd">
<svg version="1.1" id="Layer_1" xmlns="http://www.w3.org/2000/svg" xmlns:xlink="http://www.w3.org/1999/xlink" x="0px" y="0px"
	 width="562.043px" height="226px" viewBox="0 0 562.043 226" enable-background="new 0 0 562.043 226" xml:space="preserve">
<g>
	<g>
		<path d="M359.043,13c3.864,5.66-3.989,7.009-5,11c-24.353,6.313-39.179,22.154-58,34c-16.052,22.111-35.255,60.341-22,96
			c17.029-4.638,29.141-14.192,45-20c1.86-7.474,3.5-15.166,4-24c-6.265,5.57-17.758,23.548-34,16c0.6-15.067,8.057-23.276,19-28
			c4.058,1.275,3.987,6.679,7,9c6.295-1.706,7.786-8.214,14-10c3.677-0.344,3.023,3.643,4,6c5.784-1.779,9.48,1.488,15,0
			c3.727-1.005,5.727-5.133,9-6c-1.185,0.313,10.766-0.058,11,0c5.727,1.413,5.337,5.882,10,9c4.378,2.927,11.276,0.79,13,7
			c7.743-9.064,17.229,1.693,25-6c2.188,1.813,4.638,3.362,4,8c19.102-11.631,50.453-8.255,73-18c2.204-15.796,10.896-25.104,25-29
			c-2.541,8.533-19.11,11.501-19,26c12.063-4.605,27.995-5.338,27-23c15.326,16.862-19.03,23.042-28,31
			c-7.119,23.203-7.092,48.976-13,71c-4.064-22.457,4.178-44.221,6-68c-17.409,4.305-35.789,6.959-52,10
			c1.239,6.098-0.28,8.649-1,14c-5.959-1.375-9.708-4.957-10-12c-3.858,1.143-5.689,4.311-10,5c-2.655-1.01-5.689-1.644-6-5
			c-5.62,1.381-6.184,7.817-13,8c-1.675-1.658-0.796-5.871-1-9c-5.442,3.892-8.017,10.65-13,15c-6.271-1.859-0.241-10.853-3-15
			c-6.906-1.603-6.105,8.811-11,6c-0.723-3.056,1.021-3.644,1-6c-4.557,1.777-8.107,4.56-14,5c-3.249,6.086-4.549,14.119-6,22
			c7.499,1.922,23.294-4.179,31,1c-6.319,11.529-21.633,4.149-31,9c-8.54,4.422-4.097,16.207-12,22c-7.474-3.438-1.284-12.899-1-20
			c-24.545-7.875-15.94,26.058-27,35c-8.116-1.149-3.208-9.629-3-16c-19.23,9.908-32.766-10.205-51-5c-0.527-5.86,5.634-5.033,7-9
			c-7.739-16.018-6.761-33.226-3-50C273.102,60.68,316.537,30.887,359.043,13z M360.043,114c5.357,0.357,7.51-2.491,7-8
			C360.532,104.489,361.611,110.568,360.043,114z M297.043,120c4.118,0.785,5.132-1.535,9-1c0.366-4.615,1.231-5.753,0-10
			C298.287,108.958,299.109,113.234,297.043,120z M334.043,112c-0.043,1.376,0.471,2.195,1,3c2.826,0.828,2.591-1.408,5-1
			C340.898,110.218,335.566,110.461,334.043,112z M330.043,126c0.518,7.676-1.057,14.424-5,20c6.913-1.627,9.949-0.985,17-2
			c3.431-8.908,8.632-21.359,7-32C346.079,120.035,338.354,123.31,330.043,126z M293.043,153c7.955-1.121,11.396-3.975,22-4
			C317.806,134.648,296.377,148.666,293.043,153z M287.043,163c4.439,11.938,24.326,3.847,25-6
			C301.264,156.552,295.173,160.796,287.043,163z"/>
		<path d="M56.044,26c1.918-3.749,3.639-7.694,8-9c8.774,11.561,4.662,31.182,9,43c4.708,12.823,16.052,25.232,23,37
			c2.7,11.299,6.393,21.607,16,26c3.146-21.572,4.811-47.859,8-69c-0.844-1.587-5.638,4.916-9,1c2.875-12.792,8.556-22.777,14-33
			c9.214,7.783-1.513,32.184,2,44c-5.329,12.338-7.079,28.254-7,46c0.254,4.414,4.064,5.269,5,9c0.538,5.539-1.344,8.656-3,12
			c-7.926-2.74-15.573-5.76-23-9c-10.756-27.577-31.698-44.968-38-77c-4.937,16.107-2.187,41.271-6,64c2.982,5.242,6.93,22.646-5,21
			c-0.733-9.006-0.82-17.912-1-28c-0.198-11.07,3.036-21.844,3-33c-0.033-10.062,5.104-24.345,4-30
			c-1.339-6.859-15.821-18.904-25-12c-1.747,5.747,5.605,2.395,6,6c-0.408,2.925-3.422,3.245-5,5c-5.203-1.042-8.853-4.905-9-9
			C22.497,15.813,47.823,12.652,56.044,26z"/>
		<path d="M220.044,83c-6.245,12.422-20.79,16.543-36,20c-9.541,36.458-24.218,67.781-48,90c-7.849-0.642-7.33-14.836,0-16
			c0.839,1.16,1.319,2.682,1,5c21.508-17.492,32.079-45.92,40-77c-4.124-2.091-12.453,0.188-16,2c0.588,4.716,5.197,6.723,1,11
			c-7.099,1.18-10.943-5.375-8-11c-4.436,0.58-5.932,12.722-15,12c-3.259-2.74-2.841-9.159-7-11c2.975-6.025,5.002-12.999,13-14
			c2.909,4.704-2.57,8.429-1,15c5.598-5.069,7.81-13.524,15-17C182.446,109.013,197.576,66.883,220.044,83z M194.043,93
			c6.604-0.396,11.126-2.875,15-6C203.262,88.218,197.821,89.777,194.043,93z"/>
		<path fill="#FFFFFF" d="M349.043,112c1.632,10.64-3.569,23.091-7,32c-7.051,1.015-10.087,0.373-17,2
			c3.943-5.576,5.518-12.324,5-20C338.354,123.31,346.079,120.035,349.043,112z"/>
		<path d="M483.043,174c3.929,1.244,1.677,9.199,0,11C479.409,184.052,480.811,175.244,483.043,174z"/>
		<path d="M481.043,186c2.946,5.229,2.393,18.713-5,21C478.679,199.005,478.988,193.022,481.043,186z"/>
	</g>
</g>
</svg>
