<?xml version="1.0" encoding="UTF-8" standalone="no"?>
<!-- Created with Inkscape (http://www.inkscape.org/) -->

<svg
   version="1.1"
   id="svg1"
   width="1250"
   height="438"
   viewBox="0 0 1250 438"
   sodipodi:docname="Taras_Shevchenko’s_signature.svg"
   inkscape:version="1.3 (0e150ed6c4, 2023-07-21)"
   xmlns:inkscape="http://www.inkscape.org/namespaces/inkscape"
   xmlns:sodipodi="http://sodipodi.sourceforge.net/DTD/sodipodi-0.dtd"
   xmlns="http://www.w3.org/2000/svg"
   xmlns:svg="http://www.w3.org/2000/svg">
  <defs
     id="defs1" />
  <sodipodi:namedview
     id="namedview1"
     pagecolor="#ffffff"
     bordercolor="#000000"
     borderopacity="0.25"
     inkscape:showpageshadow="2"
     inkscape:pageopacity="0.0"
     inkscape:pagecheckerboard="0"
     inkscape:deskcolor="#d1d1d1"
     showgrid="false"
     inkscape:zoom="0.7896"
     inkscape:cx="618.66768"
     inkscape:cy="332.44681"
     inkscape:window-width="1920"
     inkscape:window-height="1057"
     inkscape:window-x="-8"
     inkscape:window-y="-8"
     inkscape:window-maximized="1"
     inkscape:current-layer="g1" />
  <g
     inkscape:groupmode="layer"
     inkscape:label="Image"
     id="g1">
    <path
       style="fill:#000000"
       d="m 1152,409.94362 c -7.975,-0.50004 -16.75,-1.56272 -19.5,-2.36152 -2.75,-0.7988 -8.6,-2.16283 -13,-3.03119 -12.9897,-2.56356 -15.7628,-3.30194 -20.5,-5.45846 -2.475,-1.12669 -5.3913,-2.05841 -6.4807,-2.07049 -1.0893,-0.0121 -4.4643,-0.98355 -7.5,-2.15883 -13.4314,-5.20012 -15.7494,-6.14078 -19.585,-7.94777 -2.2362,-1.05345 -4.791,-1.91536 -5.6774,-1.91536 -2.2263,0 -5.9096,-4.93727 -5.5514,-7.44139 0.3792,-2.65067 3.9484,-3.1842 8.686,-1.29841 5.6923,2.26583 16.2764,5.54177 20.1085,6.22394 1.925,0.34267 5.075,1.23442 7,1.98166 1.925,0.74724 6.875,2.04223 11,2.87775 4.125,0.83553 10.2,2.18745 13.5,3.00426 18.4143,4.55792 24.3646,5.15551 50,5.02154 l 25,-0.13065 6.1647,-3.14018 c 6.5977,-3.36077 11.9108,-8.55886 12.9401,-12.66023 0.944,-3.76107 -2.1255,-10.67358 -6.5626,-14.77894 C 1198.0052,360.92423 1180.2852,351 1177.653,351 c -0.8249,0 -3.4699,-1.50377 -5.8777,-3.34172 -2.4078,-1.83795 -5.6774,-3.66787 -7.2656,-4.06649 -1.5882,-0.39862 -4.1096,-1.59485 -5.6031,-2.65828 -1.4934,-1.06343 -3.5724,-1.93351 -4.6198,-1.93351 -1.0475,0 -2.778,-0.6677 -3.8457,-1.48378 -1.0676,-0.81607 -3.7411,-1.96242 -5.9411,-2.54743 -2.2,-0.58502 -5.35,-1.66936 -7,-2.40966 -1.65,-0.7403 -5.5945,-2.27698 -8.7656,-3.41484 -11.0159,-3.95275 -17.2625,-6.37008 -22.2344,-8.60428 -6.8025,-3.05683 -10.9295,-4.48352 -17.9879,-6.21827 -3.2933,-0.80941 -6.494,-1.89179 -7.1128,-2.40529 -0.6187,-0.5135 -3.7322,-1.41561 -6.9189,-2.0047 -3.1866,-0.58909 -6.7359,-1.64901 -7.8872,-2.35539 -1.1512,-0.70637 -7.4932,-2.49476 -14.0932,-3.97419 -6.6,-1.47944 -13.575,-3.12781 -15.5,-3.66304 -1.925,-0.53524 -7.55,-1.82683 -12.5,-2.87021 -12.8573,-2.7101 -26.30426,-5.82822 -31.29521,-7.2568 -4.69203,-1.34302 -9.12123,-0.28388 -19.70479,4.71191 -2.75,1.29809 -7.925,3.58812 -11.5,5.08896 -3.575,1.50083 -10.22121,4.45638 -14.76935,6.5679 C 942.6825,308.2724 938.63329,310 938.23239,310 c -0.4009,0 -5.00469,1.82605 -10.23065,4.05789 -11.61138,4.95884 -16.71514,7.03168 -24.50174,9.9511 -3.3,1.23727 -7.8,3.03353 -10,3.99169 -7.40112,3.2234 -37.50215,12.00788 -41.12788,12.00249 -1.17033,-0.002 -3.83898,0.71178 -5.93033,1.5856 -2.09135,0.87382 -5.85881,1.98062 -8.37213,2.45954 -4.96309,0.94575 -14.2765,3.56949 -26.06966,7.34424 -4.125,1.32033 -10.2,2.94989 -13.5,3.62124 -3.3,0.67135 -8.58929,2.0679 -11.75398,3.10343 -3.16469,1.03553 -7.21469,1.89805 -9,1.91671 -1.78531,0.0187 -5.04602,0.90339 -7.24602,1.96607 -2.2,1.06268 -4.86807,1.94741 -5.92905,1.96607 -1.06098,0.0187 -4.88598,0.90111 -8.5,1.961 -14.34484,4.20693 -17.85693,5.05212 -25.07095,6.03341 -4.125,0.56111 -11.775,1.89107 -17,2.95548 -21.06841,4.29193 -24.63678,4.88969 -45.5,7.62203 -18.75925,2.4568 -60.44769,6.30445 -86,7.93741 -2.75,0.17574 -12.425,0.86047 -21.5,1.52161 -11.24117,0.81896 -27.33638,0.98399 -50.5,0.51779 -18.7,-0.37635 -35.35,-0.62796 -37,-0.55912 -1.65,0.0688 -7.725,-0.33438 -13.5,-0.89604 -5.775,-0.56166 -19.5,-1.7253 -30.5,-2.58589 -11,-0.86058 -21.8,-1.98349 -24,-2.49536 -2.2,-0.51187 -7.50195,-0.94141 -11.78212,-0.95453 -4.45805,-0.0137 -9.2548,-0.63919 -11.22987,-1.46442 -2.10249,-0.87848 -10.38141,-1.86217 -21.21788,-2.52109 C 349.89912,380.34692 341.15931,379.28521 337,378.09002 327.56763,375.37959 316.6163,373 313.5748,373 c -1.45147,0 -4.28141,-0.68623 -6.28875,-1.52495 -2.00734,-0.83872 -10.20538,-3.09558 -18.21788,-5.01526 -8.01249,-1.91967 -16.14317,-4.11123 -18.06817,-4.87013 -17.44594,-6.87775 -23.50233,-10.61313 -27.85004,-17.17698 -2.85288,-4.30706 -2.9891,-4.96079 -2.44567,-11.73689 0.64222,-8.00788 2.7093,-12.92435 8.27248,-19.67579 2.0394,-2.475 4.11642,-5.2409 4.61561,-6.14644 1.1553,-2.09573 9.72755,-9.18007 13.23476,-10.93755 1.47007,-0.73666 6.04786,-3.21497 10.17286,-5.50734 4.125,-2.29237 8.85,-4.46245 10.5,-4.82238 1.65,-0.35994 7.05,-2.1703 12,-4.02302 11.84351,-4.43288 33.08827,-11.28093 37.5,-12.08777 1.925,-0.35206 5.75,-1.24464 8.5,-1.98351 2.75,-0.73887 9.95,-2.3026 16,-3.47495 6.05,-1.17236 15.05,-2.9749 20,-4.00566 4.95,-1.03076 12.375,-2.36953 16.5,-2.97505 20.64448,-3.03043 31.74976,-4.94085 34.13861,-5.87277 1.45124,-0.56615 9.51326,-1.51228 17.91559,-2.1025 8.40233,-0.59023 16.88996,-1.49794 18.86139,-2.01712 1.97142,-0.51919 17.98441,-1.65141 35.58441,-2.51605 17.6,-0.86464 35.375,-2.02713 39.5,-2.58332 7.22584,-0.97428 73.7355,-2.86184 85,-2.41232 3.025,0.12072 14.725,0.26734 26,0.32582 21.91592,0.11368 51.95131,1.48857 71.5,3.27296 6.6,0.60244 19.40425,1.25354 28.45388,1.44689 24.93998,0.53284 41.63629,1.34415 51.04612,2.48043 4.675,0.56452 17.275,1.60041 28,2.30197 10.725,0.70156 20.76679,1.80749 22.3151,2.45762 1.5483,0.65013 5.3733,1.1928 8.5,1.20592 3.12669,0.0131 7.4849,0.50016 9.6849,1.08231 4.78506,1.26619 5.98187,1.4458 19.5,2.92642 5.775,0.63253 13.2,1.73564 16.5,2.45134 3.3,0.71571 9.6,1.61987 14,2.00924 4.4,0.38938 9.49305,1.32751 11.31789,2.08473 1.82484,0.75723 6.91562,1.8279 11.31284,2.37926 4.39723,0.55137 8.40639,1.25676 8.90924,1.56755 0.50286,0.31078 4.86208,1.20549 9.68716,1.98823 4.82508,0.78275 11.02287,2.10768 13.77287,2.94429 7.05297,2.14568 14.75171,1.96517 19.5,-0.45723 2.1562,-1.1 4.4157,-2 5.0212,-2 0.6055,0 4.925,-1.8 9.599,-4 4.6739,-2.2 8.7655,-4 9.0924,-4 0.8259,0 11.0113,-4.61429 15.4855,-7.0154 2.034,-1.09153 4.5608,-1.9846 5.6152,-1.9846 1.0543,0 3.0611,-0.9 4.4596,-2 1.3984,-1.1 3.159,-2 3.9123,-2 0.7534,0 2.4824,-0.78604 3.8423,-1.74675 2.3582,-1.66602 21.0538,-11.6336 27.5521,-14.68949 1.6938,-0.79652 3.6614,-2.14921 4.3725,-3.00598 0.711,-0.85678 1.8539,-1.55778 2.5397,-1.55778 0.6858,0 3.4449,-1.6875 6.1314,-3.75 2.6864,-2.0625 5.6578,-4.2 6.6031,-4.75 0.9452,-0.55 5.1239,-3.3625 9.286,-6.25 4.162,-2.8875 7.9719,-5.25 8.4665,-5.25 0.8413,0 12.367,-9.76698 19.4711,-16.5 4.5762,-4.33717 7.1344,-9.07983 9.0445,-16.76765 1.4413,-5.80142 1.4991,-7.47899 0.4044,-11.75 -0.7023,-2.74029 -1.582,-4.98235 -1.955,-4.98235 -0.3729,0 -1.8015,1.6875 -3.1746,3.75 -5.6318,8.45915 -21.3283,23.25 -24.6736,23.25 -0.5444,0 -3.1511,1.16509 -5.7927,2.5891 -4.0853,2.20226 -5.7128,2.5202 -10.8927,2.12801 -7.1573,-0.54191 -10.6365,-2.53116 -14.1435,-8.0867 -2.3077,-3.65567 -2.4745,-4.64376 -1.9103,-11.31788 0.3535,-4.18186 0.2283,-7.31253 -0.2924,-7.31253 -0.5008,0 -2.2475,1.125 -3.8816,2.5 -1.6341,1.375 -3.3562,2.50059 -3.8268,2.50131 -0.4706,7.2e-4 -3.3306,1.69615 -6.3556,3.76763 -3.025,2.07148 -6.625,4.32702 -8,5.01229 -1.375,0.68528 -4.975,2.79733 -8,4.69344 -3.025,1.89611 -6.1874,3.46499 -7.0275,3.4864 -0.8401,0.0214 -2.5393,0.74765 -3.776,1.61387 -1.2367,0.86622 -4.7186,1.82987 -7.7375,2.14145 -4.4965,0.46407 -5.872,0.22451 -7.6073,-1.32494 -3.72,-3.32143 -9.4064,-11.65739 -13.3985,-19.64145 -4.4689,-8.93789 -6.3328,-9.72581 -9.4619,-4 -3.2687,5.98107 -11.61727,17.35609 -16.35858,22.28871 C 987.6603,190.17142 976.76582,197 974.14482,197 c -0.59138,0 -2.66589,-1.39662 -4.61002,-3.10359 -4.49385,-3.94565 -4.73343,-8.13155 -0.7848,-13.71216 1.5125,-2.13762 4.29975,-6.09106 6.19388,-8.78542 4.28902,-6.10102 13.29888,-15.47325 21.65211,-22.52292 8.85511,-7.47324 8.59491,-10.23162 -0.94506,-10.01669 -3.42568,0.0772 -6.02821,0.78293 -7.84768,2.12813 C 986.306,142.09431 984.54684,143 983.894,143 c -0.65284,0 -3.48357,1.51564 -6.29049,3.3681 -6.65754,4.39369 -8.98691,5.07978 -10.60935,3.12486 -3.50866,-4.22767 5.10052,-10.82102 24.97344,-19.12594 2.45719,-1.02686 6.823,-1.86702 9.7018,-1.86702 4.7435,0 5.6123,0.3692 9.2675,3.93835 l 4.0332,3.93836 2.265,-2.01302 c 3.2683,-2.90476 13.5251,-9.44934 18.7649,-11.97338 23.9633,-11.54314 35.7603,-15.38838 47.2148,-15.3896 5.3795,-5.7e-4 6.8972,0.34729 7.6319,1.74929 1.0887,2.07767 0.055,5.25652 -2.3606,7.26156 -1.8234,1.51327 -13.3399,4.28641 -24.674,5.94143 -3.6784,0.53712 -8.3967,1.89243 -10.4852,3.0118 -2.0885,1.11936 -4.3249,2.03521 -4.9698,2.03521 -1.1675,0 -7.2434,3.11608 -14.8571,7.61964 -2.2,1.30131 -5.35,3.06107 -7,3.91057 -6.8756,3.53987 -12.0181,7.20624 -12.3222,8.78504 -0.2708,1.40621 0.5399,1.68475 4.9037,1.68475 4.7843,0 5.546,0.3341 8.9713,3.93489 2.1731,2.28431 4.4732,6.16443 5.4835,9.25 3.0341,9.2668 6.2338,14.7193 9.0529,15.42684 2.6063,0.65415 13.5333,-4.17529 21.1816,-9.36173 1.8249,-1.2375 3.6355,-2.25819 4.0236,-2.2682 0.8746,-0.0225 9.4486,-5.78977 10.1753,-6.84434 0.2917,-0.42324 3.2303,-2.29614 6.5303,-4.162 9.2763,-5.24491 12.553,-7.67744 16.4066,-12.17949 4.605,-5.37988 18.8289,-15.79597 21.5705,-15.79597 2.3697,0 4.5229,1.74219 4.5229,3.65953 0,0.69274 -1.0545,2.29024 -2.3434,3.55 -1.2888,1.25976 -5.9424,6.16422 -10.3412,10.89881 -6.9762,7.50866 -8.2249,9.42485 -9.775,15 -2.9104,10.46762 -3.0834,15.3487 -0.6308,17.80124 2.4897,2.48972 4.128,2.57046 10.0837,0.49697 7.5841,-2.64042 19.543,-13.53142 25.2962,-23.03736 2.0408,-3.37195 3.7105,-6.98047 3.7105,-8.01894 0,-1.03847 -1.4546,-5.2546 -3.2324,-9.36919 -2.8952,-6.70078 -3.2342,-8.48677 -3.25,-17.12352 -0.02,-11.06648 1.3701,-13.86259 6.8874,-13.85108 4.0535,0.008 11.6874,6.48716 14.5071,12.31192 2.7489,5.67842 2.6354,11.15222 -0.4121,19.87473 -3.1679,9.06735 -3.1357,11.39699 0.2478,17.91862 2.1873,4.21593 2.7483,6.64911 2.75,11.92813 0,5.70192 -0.5314,7.68401 -3.8034,14.13561 -2.0931,4.12708 -5.1842,9.17629 -6.8692,11.22046 -4.2255,5.12618 -25.1466,21.73152 -37.8252,30.02229 -5.775,3.77638 -11.625,7.62005 -13,8.54149 -1.375,0.92144 -3.175,1.98975 -4,2.37402 -0.825,0.38427 -3.525,2.00593 -6,3.60369 -2.475,1.59776 -7.65,4.54281 -11.5,6.54456 -3.85,2.00175 -8.8,4.68942 -11,5.9726 -7.2448,4.22567 -39.5061,20.54542 -40.6147,20.54542 -2.2513,0 -12.8952,5.47152 -12.574,6.46365 0.1846,0.56999 3.9026,1.85281 8.2622,2.8507 4.3596,0.99789 9.9515,2.51062 12.4265,3.36161 2.475,0.85099 6.525,1.75289 9,2.00422 2.475,0.25133 6.75,1.30244 9.5,2.3358 2.75,1.03336 11.0022,3.51878 18.3382,5.52315 7.336,2.00437 16.44,4.72803 20.2312,6.05259 3.7912,1.32455 7.464,2.40176 8.1618,2.39379 2.5712,-0.0294 15.5523,4.36575 25.2688,8.55545 5.5,2.37157 13.15,5.50027 17,6.95267 10.3495,3.90431 25.6421,10.55927 28.5,12.40248 1.375,0.8868 4.075,2.35589 6,3.26463 23.9807,11.32066 31.0224,15.74142 41.2421,25.89164 9.2865,9.2233 14.3409,18.56401 13.4877,24.9255 -0.7031,5.24214 -6.384,14.44898 -10.1517,16.4524 -1.6929,0.90023 -6.052,3.19324 -9.6868,5.09559 l -6.6087,3.4588 -18.8913,0.43405 c -10.3902,0.23873 -25.4163,0.0249 -33.3913,-0.4751 z M 586,380.11181 c 1.925,-0.67457 12.5,-1.62978 23.5,-2.12269 11,-0.4929 23.15,-1.40262 27,-2.0216 3.85,-0.61898 10.375,-1.47544 14.5,-1.90325 8.82089,-0.91482 23.77248,-3.40449 36.77814,-6.12411 5.10298,-1.06709 11.62798,-1.95976 14.5,-1.98371 2.87202,-0.024 7.24686,-0.51001 9.72186,-1.08013 2.475,-0.57012 9.12359,-1.89062 14.77465,-2.93446 5.65105,-1.04383 11.05105,-2.30025 12,-2.79205 0.94894,-0.49179 3.9585,-1.21861 6.68792,-1.61514 2.72941,-0.39653 6.55441,-1.35296 8.5,-2.1254 1.94558,-0.77244 6.91243,-2.03929 11.03743,-2.81522 4.125,-0.77593 9.525,-2.08271 12,-2.90396 C 786.78591,346.44295 792.35787,345 795.11085,345 c 1.58465,0 5.47048,-0.86113 8.63517,-1.91361 3.16469,-1.05249 7.53843,-2.21607 9.71942,-2.58573 2.181,-0.36967 5.12155,-1.26996 6.53456,-2.00066 1.41301,-0.7307 4.35356,-1.63418 6.53456,-2.00774 2.18099,-0.37356 6.66544,-1.51136 9.96544,-2.52846 3.3,-1.01709 9.15,-2.78708 13,-3.93332 3.85,-1.14623 12.625,-3.84677 19.5,-6.00119 6.875,-2.15443 15.60712,-4.86213 19.40471,-6.01711 3.79759,-1.15498 9.19759,-3.13004 12,-4.38902 8.05351,-3.61801 14.6171,-6.30129 21.09529,-8.624 3.3,-1.18319 9.6,-3.88112 14,-5.9954 4.4,-2.11429 9.53211,-4.10774 11.40469,-4.42989 1.87258,-0.32216 4.06942,-1.13742 4.88185,-1.81168 0.81244,-0.67426 4.39101,-2.35909 7.95237,-3.74406 3.56137,-1.38497 6.44756,-2.96813 6.41375,-3.51813 -0.10223,-1.66298 -10.87052,-3.62194 -25.15266,-4.57574 -7.425,-0.49587 -15.3,-1.41538 -17.5,-2.04337 -2.2,-0.62799 -8.725,-1.75236 -14.5,-2.49861 -5.775,-0.74626 -12.75,-1.80857 -15.5,-2.3607 -2.75,-0.55213 -8.825,-1.43684 -13.5,-1.96602 -4.675,-0.52919 -10.075,-1.39653 -12,-1.92742 -1.925,-0.5309 -9.8,-1.47306 -17.5,-2.09369 -7.7,-0.62063 -15.575,-1.34756 -17.5,-1.6154 -11.09837,-1.5442 -20.18494,-2.45925 -34,-3.42389 -8.525,-0.59526 -19.775,-1.48353 -25,-1.97391 -5.225,-0.49039 -20.075,-1.18331 -33,-1.53982 -12.925,-0.3565 -25.1329,-1.06331 -27.12866,-1.57068 -7.92284,-2.01417 -112.18755,-2.79522 -132.37134,-0.9916 -11.94335,1.06726 -19.63289,1.39134 -62.5,2.63409 -12.375,0.35875 -25.65,1.04586 -29.5,1.52689 -3.85,0.48103 -14.875,1.55952 -24.5,2.39663 -9.625,0.83711 -19.3,2.03214 -21.5,2.65562 -2.2,0.62348 -7.6,1.29076 -12,1.48285 -4.4,0.19209 -11.6,1.0362 -16,1.8758 -4.4,0.8396 -11.825,1.98301 -16.5,2.54091 -4.675,0.5579 -10.75,1.46643 -13.5,2.01895 -2.75,0.55253 -8.94815,1.39733 -13.77367,1.87735 -5.00635,0.498 -9.82943,1.56452 -11.23242,2.48379 -1.35232,0.88608 -5.05417,2.01949 -8.22633,2.5187 -5.25637,0.82721 -14.32632,2.63368 -24.76758,4.93298 -10.23445,2.25376 -28.2636,7.49547 -31.45672,9.14558 -1.94881,1.00708 -6.46828,3.26309 -10.04328,5.01334 -3.575,1.75026 -8.3,4.23944 -10.5,5.53151 -2.2,1.29208 -5.125,2.92252 -6.5,3.62319 -1.375,0.70068 -5.52108,3.68484 -9.2135,6.63147 -5.08569,4.05847 -7.44976,6.83088 -9.75,11.43407 -1.67008,3.34212 -3.0365,6.72273 -3.0365,7.51248 0,2.43485 3.9073,7.0835 8.81643,10.48921 4.47255,3.10283 7.0434,4.11968 17.18357,6.79663 2.475,0.65338 7.23172,2.03641 10.5705,3.07339 3.33877,1.03698 6.9532,1.88542 8.03207,1.88542 1.07886,0 4.42214,0.68368 7.4295,1.51928 3.00736,0.83561 9.06793,2.16074 13.46793,2.94475 4.4,0.78401 10.35266,1.88682 13.22813,2.45069 2.87547,0.56387 10.2636,1.52862 16.41806,2.14389 6.15446,0.61528 12.3518,1.5665 13.77187,2.11383 1.42007,0.54733 8.53982,1.42017 15.82167,1.93964 7.28185,0.51947 15.38185,1.40391 18,1.96542 7.2955,1.56465 27.99487,3.68291 57.76027,5.91085 14.85,1.11153 31.05,2.35636 36,2.7663 15.48318,1.28226 98.49204,0.76166 102.5,-0.64284 z M 984.51377,177.98809 c 2.54947,-2.20656 5.64079,-5.24406 6.86959,-6.75 2.95613,-3.62285 6.8141,-10.37396 6.2504,-10.93766 -0.62884,-0.62884 -16.85767,16.3764 -18.4157,19.29674 -1.8822,3.52795 0.0325,2.94617 5.29571,-1.60908 z m 164.65903,-50.08963 c -0.3388,-7.66197 -2.0611,-11.41012 -4.2413,-9.22994 -0.7771,0.77708 -0.6379,2.58091 0.4928,6.38865 0.8667,2.91821 1.5757,6.61166 1.5757,8.20766 0,1.88674 0.4373,2.74971 1.25,2.46696 0.8896,-0.30949 1.1557,-2.56792 0.9228,-7.83333 z M 21.384403,213.23469 c -0.613579,-0.40408 -2.363098,-3.38421 -3.88782,-6.62251 -2.595526,-5.51254 -2.738265,-6.50048 -2.239468,-15.5 0.440197,-7.94225 1.179514,-11.26262 4.255533,-19.11218 2.047529,-5.225 4.5185,-10.85 5.491045,-12.5 0.972546,-1.65 2.102265,-4.09872 2.510486,-5.4416 0.408222,-1.34289 2.372031,-4.57875 4.364021,-7.19082 1.99199,-2.61207 5.122203,-6.78176 6.956028,-9.26598 1.833826,-2.48422 6.558826,-7.96529 10.5,-12.18016 6.787364,-7.25871 7.255159,-8.06627 8.858455,-15.29242 1.689653,-7.61537 2.349173,-20.55339 1.200328,-23.547233 C 58.563901,84.42116 54.746558,84.595984 50.261185,87 48.208823,88.1 45.983014,89 45.314941,89 42.938914,89 35.281769,94.985906 32.472827,99.039211 28.316222,105.03719 20.214404,112 17.391846,112 c -3.385968,0 -3.186808,-4.11781 0.375409,-7.76191 1.521991,-1.55697 3.659491,-3.93499 4.75,-5.284474 C 23.607765,97.604127 27.875,94.279085 32,91.564633 c 4.125,-2.714452 7.996431,-5.522607 8.603181,-6.240343 0.60675,-0.717737 4.172837,-3.363404 7.924638,-5.879261 13.971471,-9.368894 16.654584,-9.69978 23.206465,-2.861858 l 4.391449,4.58317 -0.216431,7.412346 c -0.119038,4.07679 0.133099,7.473088 0.560303,7.547328 0.427205,0.07424 1.958809,-0.957406 3.403565,-2.29255 C 81.317927,92.498322 84.525,89.852097 87,87.952966 c 2.475,-1.899131 4.725,-3.682178 5,-3.962325 0.275,-0.280148 2.459279,-1.779989 4.853954,-3.332982 5.812856,-3.769748 14.256036,-4.77308 17.263386,-2.051467 2.69643,2.440231 4.44578,5.95716 5.29432,10.643808 0.37343,2.0625 0.99558,3.75 1.38255,3.75 0.38697,0 4.75408,-4.205127 9.70468,-9.344727 16.76869,-17.408838 25.03158,-22.310951 33.38718,-19.807553 6.70214,2.008008 7.64725,3.968344 7.38106,15.309651 -0.12808,5.456967 -0.87361,12.491454 -1.65672,15.632194 -0.78312,3.140739 -1.73635,8.410435 -2.1183,11.710435 -0.38195,3.3 -1.10828,6.77539 -1.61406,7.72309 -0.50579,0.9477 -1.3485,4.0977 -1.8727,7 -0.5242,2.9023 -1.60183,7.52691 -2.39474,10.27691 -4.05678,14.06992 -9.56637,42.05394 -10.51764,53.42064 -0.71202,8.508 -1.04994,9.6456 -3.48815,11.74286 -3.30513,2.84295 -7.37442,3.96918 -9.5096,2.63191 -2.26409,-1.41801 -2.46984,-7.59021 -0.59802,-17.93921 0.88101,-4.87091 2.04455,-11.7812 2.58567,-15.3562 0.54111,-3.575 1.84425,-10.325 2.89586,-15 1.0516,-4.675 2.89386,-13 4.09389,-18.5 1.20004,-5.5 3.02462,-12.99486 4.05463,-16.65524 1.03001,-3.66038 1.87275,-8.01153 1.87275,-9.66923 0,-1.6577 0.63481,-5.63784 1.41069,-8.844763 2.15528,-8.908327 2.7275,-18.759521 1.21021,-20.834541 -1.21795,-1.66564 -1.47068,-1.661343 -5.15645,0.08767 -4.84869,2.300852 -23.81483,20.400571 -27.62381,26.361886 -1.94198,3.03932 -2.84064,5.74936 -2.84064,8.56634 0,2.26631 -0.44153,6.56571 -0.98118,9.55422 -0.53965,2.98851 -1.40904,9.25866 -1.93198,13.93366 -1.96715,17.58609 -4.00433,29.22513 -5.52022,31.53867 -0.86164,1.31503 -1.56662,2.88515 -1.56662,3.48916 0,1.24784 -5.11453,11.68503 -8.34729,17.03426 C 96.82356,195.05286 86.294435,205 82.665286,205 c -3.083104,0 -4.261619,-1.46203 -5.792571,-7.18609 -0.980737,-3.66686 -0.975075,-6.10939 0.02773,-11.96087 1.777835,-10.37392 4.99854,-22.63498 7.213799,-27.46257 C 85.151407,156.13023 86,153.65207 86,152.88345 86,151.18169 95.309908,132.04638 98.836349,126.5 c 6.712601,-10.55757 8.291201,-15.28835 8.391021,-25.14637 0.0781,-7.709353 -0.22252,-9.690786 -1.72138,-11.347008 -3.68906,-4.076371 -6.75434,-2.503859 -19.576204,10.042748 -3.063618,2.99785 -7.451118,6.68385 -9.75,8.19113 -2.298882,1.50727 -4.178264,3.53227 -4.176405,4.5 0.0047,2.43829 -7.729621,31.6485 -9.997997,37.7595 -1.020787,2.75 -2.140695,6.41855 -2.488683,8.15233 -0.347989,1.73378 -1.506605,4.86643 -2.574704,6.96144 C 55.873899,167.70878 55,169.99457 55,170.69331 c 0,3.86728 -8.672308,19.37237 -15.612345,27.91308 -10.995771,13.53187 -14.878096,16.6864 -18.003252,14.6283 z m 9.508326,-17.3717 c 5.870184,-7.84422 8.575614,-13.26606 9.661894,-19.36299 0.391971,-2.2 1.26739,-5.125 1.945377,-6.5 0.677987,-1.375 1.549474,-4.3 1.936639,-6.5 0.634497,-3.60543 2.687942,-11.34242 5.773902,-21.75497 0.612071,-2.06523 0.892946,-3.97488 0.624165,-4.24366 -0.69506,-0.69506 -6.057014,4.44173 -8.349235,7.99863 -3.338055,5.17974 -10.563529,19.76515 -12.632458,25.5 -3.586208,9.94058 -7.437233,28.03516 -6.491291,30.50025 0.97023,2.52838 1.993489,1.76243 7.531007,-5.63726 z M 88.134528,192.25 c 3.786942,-4.58784 9.348115,-20.28458 10.894368,-30.75 0.650095,-4.4 1.801724,-10.925 2.559184,-14.5 0.75746,-3.575 1.38501,-7.3332 1.39456,-8.35155 0.026,-2.77543 -5.320547,7.92523 -7.935632,15.88241 -1.259703,3.83303 -3.06992,8.76914 -4.022705,10.96914 -0.952784,2.2 -2.267903,6.025 -2.922486,8.5 -0.654583,2.475 -2.025912,7.65 -3.047398,11.5 -1.021485,3.85 -1.650053,7.3375 -1.396816,7.75 0.799424,1.30219 2.978369,0.81548 4.476925,-1 z m 490.503792,5.08184 c -1.02393,-0.28683 -3.92908,-1.73617 -6.4559,-3.22077 -6.69911,-3.93596 -9.96084,-10.01525 -10.80511,-20.13885 l -0.66757,-8.0047 -3.10487,2.5541 c -1.70768,1.40475 -4.45487,3.24298 -6.10487,4.08496 -1.65,0.84197 -4.8,2.59795 -7,3.90218 -2.2,1.30423 -6.925,3.78102 -10.5,5.50399 -3.575,1.72296 -8.16415,3.99994 -10.19812,5.05995 -2.03396,1.06002 -4.50896,1.93007 -5.5,1.93346 -0.99103,0.003 -3.14596,0.707 -4.78873,1.56358 -7.72001,4.0254 -27.05502,5.64995 -36.76333,3.0889 -3.00375,-0.79239 -6.14433,-2.61445 -8.54217,-4.95587 -4.11076,-4.01406 -5.69473,-4.46239 -8.12891,-2.30086 -3.3093,2.93863 -16.55928,6.54408 -27.6137,7.51396 -12.80652,1.1236 -17.11005,0.4303 -25.01236,-4.02949 -8.22188,-4.64014 -11.96608,-9.6016 -13.93937,-18.47114 -1.3334,-5.99338 -2.00883,-7.41524 -3.5225,-7.41524 -1.03003,0 -2.13609,0.42605 -2.45792,0.94679 -0.9984,1.61544 -9.47408,7.00034 -12.02674,7.64102 -1.33326,0.33463 -2.94767,1.23927 -3.58758,2.0103 -0.6399,0.77104 -1.6259,1.40189 -2.1911,1.40189 -0.9296,0 -7.44672,2.86689 -15.15105,6.66496 -4.16406,2.05279 -19.46322,4.56169 -23.38608,3.83507 -7.95447,-1.47339 -15.74474,-13.60233 -13.27922,-20.6749 1.2589,-3.6113 1.4356,-7.82513 0.32812,-7.82513 -0.41842,0 -4.67493,3.15 -9.45892,7 -4.78398,3.85 -9.09279,7 -9.57513,7 -0.48233,0 -2.86332,1.51172 -5.29108,3.35939 -5.87634,4.47222 -15.31296,9.16807 -21.15017,10.52474 -4.74523,1.10287 -12.85248,0.1381 -16.97998,-2.02063 -4.21254,-2.20322 -4.61308,-17.29053 -0.66567,-25.07366 1.03494,-2.04059 1.88171,-4.35787 1.88171,-5.14951 0,-0.79164 1.62118,-3.84707 3.60262,-6.78984 1.98144,-2.94277 4.34394,-6.75443 5.25,-8.47035 0.90606,-1.71592 2.88841,-4.64092 4.40523,-6.5 C 281.87478,117.64191 287.16028,111.51787 299,98.578027 321.5802,73.899722 324.97691,69.861937 331.45301,60 c 3.43114,-5.225 6.75786,-10.482916 7.39271,-11.684259 1.51208,-2.86132 1.48292,-10.5871 -0.0457,-12.115741 -2.0119,-2.011902 -8.01804,-1.314754 -13.49805,1.566754 -17.41639,9.157903 -26.90039,17.008213 -32.46975,26.876574 -4.38583,7.771274 -10.9201,8.728172 -11.63083,1.703254 -0.50841,-5.025163 12.55864,-20.331417 23.12161,-27.083791 16.37414,-10.467158 31.92686,-15.253433 38.50745,-11.850479 2.01226,1.040581 4.10882,3.507697 5.77495,6.795643 3.2086,6.331877 2.82709,11.35335 -1.54174,20.292045 -1.61289,3.3 -3.36054,7.125 -3.88368,8.5 -1.92714,5.065278 -27.26245,36.06138 -39.67361,48.53807 C 293.87495,121.22034 276.37,144.67042 270.68977,155.5 267.28511,161.99113 264,170.56787 264,172.96559 c 0,2.73065 2.72266,5.04717 5.82143,4.95304 1.47321,-0.0447 5.37857,-1.59243 8.67857,-3.43928 3.3,-1.84686 7.35,-3.99053 9,-4.76373 1.65,-0.7732 3.6176,-2.15052 4.37244,-3.06072 0.75485,-0.91019 1.75141,-1.6549 2.21459,-1.6549 0.8973,0 4.52864,-2.47104 15.43032,-10.5 10.4188,-7.67332 13.79064,-10.94074 16.16198,-15.66149 1.19863,-2.38618 7.19699,-14.46351 13.3297,-26.83851 17.18698,-34.681093 19.09394,-38.066548 25.89001,-45.962769 7.31415,-8.498168 9.59613,-10.527324 18.85039,-16.761913 11.06793,-7.456466 18.71445,-7.002198 22.40053,1.330781 1.12259,2.537813 1.80413,5.577138 1.51452,6.754054 -2.27648,9.251161 -2.9404,11.293541 -4.10409,12.625074 -0.72811,0.833125 -1.66752,2.637988 -2.08758,4.010806 -0.42007,1.372817 -2.6108,4.801538 -4.86829,7.619379 -2.25748,2.81784 -6.12952,7.955085 -8.60452,11.416098 -5.24359,7.33258 -23.00447,24.97156 -34.5,34.26322 -12.49277,10.09771 -12.90516,10.69753 -17.95032,26.10831 -4.8655,14.86202 -5.85757,22.8811 -2.96789,23.98997 3.08527,1.18393 13.9459,0.62611 16.01411,-0.82252 C 351.77677,174.34252 368.7268,166 370.07264,166 c 0.66249,0 4.88706,-2.45027 9.38793,-5.44505 C 388.36134,154.63258 396,147.0995 396,144.24413 c 0,-0.9903 1.575,-5.08703 3.5,-9.10383 1.925,-4.0168 3.5,-7.75607 3.5,-8.30949 0,-0.95648 12.16753,-26.67036 14.11561,-29.83081 0.50853,-0.825 1.61224,-2.85 2.45269,-4.5 0.84046,-1.65 4.63098,-8.175 8.42338,-14.5 3.7924,-6.325 8.53444,-14.3125 10.53786,-17.75 C 441.6147,54.956446 442.59742,54 444.95121,54 448.4147,54 453,57.487768 453,60.12224 c 0,2.461476 -2.18496,6.738706 -6.787,13.286074 -3.69812,5.261361 -11.99132,20.041542 -18.00673,32.091686 -1.92192,3.85 -4.08693,7.69094 -4.81114,8.53543 -2.3322,2.71954 -10.22704,19.395 -12.8028,27.04203 -1.37507,4.0824 -3.17613,9.22254 -4.00234,11.42254 -2.10755,5.61188 -2.14475,23.26295 -0.0553,26.24604 3.50167,4.99934 19.59924,8.45008 29.46533,6.31631 7.38173,-1.59646 16.43025,-4.21806 17.5,-5.07022 0.55,-0.43812 2.90485,-1.30587 5.23299,-1.92832 4.5763,-1.22353 5.63937,-2.54496 6.67839,-8.30149 0.80525,-4.46138 7.86177,-18.45193 13.65579,-27.07453 12.14795,-18.07844 38.41628,-37.13288 48.56614,-35.22876 6.28968,1.17995 7.88615,6.55932 4.29593,14.47525 -6.87038,15.1482 -24.22877,34.03932 -44.28575,48.19615 -7.84506,5.53729 -9.20125,7.35001 -7.79992,10.42559 0.6385,1.40135 2.72044,3.19952 4.62655,3.99594 5.13431,2.14525 16.38114,1.87019 21.67068,-0.53 2.39756,-1.08792 5.17935,-1.98792 6.18175,-2 2.29872,-0.0277 25.32025,-11.30732 29.75328,-14.57791 1.822,-1.34423 3.6376,-2.44405 4.03467,-2.44405 1.15211,0 15.27091,-9.65598 17.0646,-11.67064 0.8958,-1.00615 2.7895,-5.20436 4.20823,-9.32936 2.78758,-8.10494 4.73911,-11.97549 14.43962,-28.63867 18.90528,-32.474764 37.29682,-53.910533 57.65396,-67.19703 12.81314,-8.362755 15.86571,-8.975528 20.68826,-4.152973 2.79883,2.798827 2.97906,3.416286 2.55402,8.75 -0.47752,5.992442 -3.12978,14.66594 -5.27138,17.238673 -0.68675,0.825 -1.92213,3.13158 -2.74528,5.125734 -0.82315,1.994154 -3.68046,6.121312 -6.34958,9.171462 C 645.68383,87.347346 642.15,91.642154 640.5,93.841215 629.54248,108.44501 615.73163,122.14521 594.64863,139.32524 578.66811,152.34739 577,155.50965 577,172.78213 c 0,9.05516 0.2353,10.3799 2.26225,12.73637 2.19673,2.55384 2.40531,2.59401 7.20063,1.38653 8.72664,-2.19739 15.37052,-7.85495 23.18072,-19.73939 3.40912,-5.18752 3.80445,-8.16564 1.08395,-8.16564 -0.73437,0 -2.77349,-1.48392 -4.53138,-3.29761 -2.62352,-2.70678 -3.19585,-4.09533 -3.19436,-7.75 0.002,-3.96626 0.57482,-5.08578 5.25,-10.2535 3.97668,-4.39564 6.09623,-5.93175 8.7485,-6.34032 6.961,-1.07233 11.48447,5.75264 10.32141,15.57285 -0.44086,3.72234 -0.22897,4.8902 0.9708,5.35059 2.86863,1.1008 14.03657,-3.18774 30.48875,-11.70783 5.05177,-2.61615 22.26382,-20.07477 25.78258,-26.15191 1.56754,-2.70725 4.27918,-6.9801 6.02588,-9.49522 1.74669,-2.51513 3.92712,-6.025845 4.8454,-7.801597 2.4676,-4.771829 4.94502,-5.252212 12.5533,-2.434148 3.58136,1.326517 9.69327,2.672481 13.58201,2.991031 l 7.07044,0.57918 3.92956,-3.911053 c 2.16126,-2.151079 5.78053,-5.964989 8.04282,-8.475356 2.26229,-2.510366 6.31229,-5.569028 9,-6.797025 2.68771,-1.227997 6.08117,-2.872928 7.54103,-3.655402 C 758.61415,74.640206 761.80691,74 764.2493,74 c 4.72878,0 6.92133,1.55814 8.23144,5.849672 1.03385,3.386587 -4.67872,14.171074 -9.60234,18.127805 -4.85312,3.900073 -18.6232,11.017813 -21.35076,11.036173 -5.01382,0.0338 -6.8162,1.44854 -11.9436,9.37509 -15.80763,24.43731 -23.61659,48.66549 -17.47117,54.20627 1.79793,1.62104 3.62384,1.89427 12.25,1.83308 8.33371,-0.0591 11.56035,-0.56173 18.13713,-2.82523 7.19271,-2.47549 14.50059,-5.44451 18.42662,-7.48632 0.78465,-0.40807 2.20867,-3.51522 3.16449,-6.90479 4.5133,-16.00515 17.60953,-34.06889 32.40889,-44.70185 12.60648,-9.05742 21.30659,-7.63887 23.15898,3.77608 0.58854,3.62675 -0.95405,9.80832 -2.98955,11.97993 -0.64319,0.6862 -2.33775,2.94201 -3.76571,5.01293 -5.37103,7.78943 -20.62038,23.17706 -29.59624,29.8646 -10.18933,7.59164 -10.76095,8.74075 -7.62227,15.32263 1.50954,3.16554 2.09752,3.53393 5.64047,3.53393 2.17539,0 6.02955,-0.94886 8.56479,-2.10858 9.97457,-4.56275 13.70557,-6.46189 15.99439,-8.14142 3.00368,-2.20409 5.98782,-2.24537 6.81328,-0.0942 0.6166,1.60683 0.027,2.25167 -6.51166,7.12126 -1.27244,0.94764 -3.09186,2.4174 -4.04316,3.26614 -3.16522,2.82397 -10.56797,6.0911 -16.99801,7.50191 -5.56564,1.22116 -6.80733,1.20521 -10,-0.12844 -4.63217,-1.93496 -8.79499,-5.87938 -11.25722,-10.66663 -1.0608,-2.0625 -2.40713,-3.75 -2.99183,-3.75 -0.5847,0 -4.43455,1.35 -8.55523,3 -4.12068,1.65 -8.69565,3.00487 -10.16659,3.01082 -1.47094,0.006 -4.88346,0.68096 -7.58337,1.5 -10.72323,3.25301 -23.99226,1.11363 -29.20626,-4.70895 -5.54866,-6.1963 -6.75289,-9.67058 -6.65984,-19.21409 0.0702,-7.20555 0.57885,-10.22692 2.45563,-14.58778 2.26471,-5.26225 9.8929,-18.84899 12.35176,-22 0.64378,-0.825 2.23471,-3.43828 3.53541,-5.80728 2.82449,-5.14436 1.99564,-6.15338 -5.07437,-6.17741 -2.47863,-0.008 -6.02966,-0.45212 -7.89118,-0.98599 -4.20814,-1.20688 -5.32858,-0.58873 -9.07251,5.00533 -1.64368,2.45594 -4.08726,6.08763 -5.43017,8.07042 -3.38554,4.99871 -17.66614,18.9282 -24.52877,23.92569 -6.27119,4.56679 -17.37011,9.89743 -20.69865,9.94124 -1.17033,0.0154 -3.66467,0.67011 -5.54298,1.45492 -1.8783,0.78481 -6.20896,1.74301 -9.62367,2.12934 l -6.20857,0.70242 -3.10136,6.12066 c -3.15459,6.22568 -12.13908,18.22196 -16.81662,22.4539 -5.64285,5.1053 -19.4344,9.90095 -24.4406,8.4986 z M 490.34208,158 c 3.97612,-2.75314 17.44313,-17.62484 20.91533,-23.09692 4.7006,-7.40803 7.02809,-14.42125 5.27016,-15.8802 -1.72698,-1.43327 -14.77402,8.81755 -20.5939,16.18024 -4.12868,5.22318 -12.14339,20.79999 -13.51591,26.26854 l -0.72338,2.88215 3.24069,-2.42691 c 1.78238,-1.33479 4.21554,-3.1019 5.40701,-3.9269 z M 788.12189,147.54764 C 798.71006,137.74486 811,122.72926 811,119.59563 c 0,-2.87943 -3.62141,-1.68433 -10.13624,3.34505 -7.17316,5.5376 -9.2974,8.10234 -16.11376,19.45519 -7.32672,12.20288 -6.16361,13.97996 3.37189,5.15177 z M 619,143.44098 c 0,-1.45136 -0.43284,-2.2915 -1,-1.94098 -0.55,0.33992 -1,1.49148 -1,2.55902 0,1.06754 0.45,1.94098 1,1.94098 0.55,0 1,-1.15156 1,-2.55902 z M 595.27538,127.96576 C 620.31443,104.63315 625.09573,99.464377 635.316,84.680287 642.5341,74.238981 646.9867,64.047791 646.97282,58 c -0.008,-3.393904 -1.52475,-4.28346 -4.59012,-2.691685 -3.77171,1.958562 -22.53887,21.695151 -26.77061,28.153467 -7.87606,12.020127 -12.5804,19.415268 -14.69127,23.094448 -6.23289,10.86371 -12.77196,23.19754 -13.40259,25.2796 -0.6462,2.13349 -0.52385,2.23754 1.41252,1.20123 1.166,-0.62403 4.02109,-2.90611 6.34463,-5.0713 z M 358.23331,110.67213 C 360.6207,108.37746 365.6584,103.575 369.42818,100 c 6.50507,-6.168948 17.57637,-18.906883 22.22202,-25.567223 7.15361,-10.255956 9.20502,-18.596682 4.73091,-19.235147 -2.37729,-0.339244 -14.30959,9.550322 -18.15766,15.049191 -1.25211,1.789248 -4.62711,6.511411 -7.5,10.493694 -2.8729,3.982283 -6.79845,10.250289 -8.72345,13.928902 -1.925,3.678613 -5.1875,9.744083 -7.25,13.478813 -5.83154,10.55964 -5.28738,10.95393 3.48331,2.5239 z M 753.09636,91.361509 C 757.33501,89.321049 763,84.078759 763,82.196844 c 0,-2.017094 -2.45597,-0.851778 -8.62739,4.093548 -7.60585,6.094777 -8.18527,8.397079 -1.27625,5.071117 z M 834,193 c -1.1,-1.1 -2,-2.76542 -2,-3.70094 0,-2.37404 10.1032,-11.86774 18.71949,-17.59019 3.96771,-2.63511 8.7637,-6.68511 10.65777,-9 3.7062,-4.52963 11.38779,-18.13781 13.2616,-23.49336 1.04428,-2.98467 0.99911,-3.16867 -0.49484,-2.01574 -5.00544,3.86286 -13.15068,10.65955 -16.64402,13.88838 -4.65752,4.30485 -7.98257,5.58617 -10.04799,3.87202 -2.18257,-1.81137 -1.76125,-4.17579 1.29799,-7.28411 3.60425,-3.66209 24.10542,-19.77865 31.75,-24.95959 3.3,-2.2365 6.225,-4.34682 6.5,-4.68959 1.92389,-2.39808 7.3912,-5.11464 9.74793,-4.8435 2.17873,0.25066 2.81921,0.90212 3.07433,3.12709 0.17724,1.54576 -0.19801,3.43735 -0.83389,4.20354 -0.63588,0.76619 -1.7722,3.32647 -2.52516,5.68953 -3.86506,12.12992 -6.43292,17.28196 -12.16111,24.39945 -3.16299,3.93014 -4.15248,6.40696 -2.5521,6.38823 4.13252,-0.0484 29.01821,-2.14592 30.81757,-2.59753 1.44527,-0.36274 3.52504,-2.57724 5.39274,-5.74208 1.67209,-2.83338 3.59602,-6.05161 4.2754,-7.15161 0.67938,-1.1 3.61575,-5.89192 6.52526,-10.64871 2.90951,-4.7568 5.96914,-9.21234 6.79917,-9.9012 2.37597,-1.97188 7.68255,-1.3686 9.68207,1.1007 2.62012,3.23571 2.16748,5.72227 -2.06765,11.35834 -4.54535,6.04893 -11.61018,18.07283 -12.68606,21.59087 -0.42049,1.375 -2.69689,6.55 -5.05866,11.5 -2.36177,4.95 -4.59844,10.2375 -4.97039,11.75 -0.74015,3.00976 0.54114,3.65914 2.51859,1.27646 1.62886,-1.96266 7.85761,-3.09081 9.26953,-1.67889 1.83671,1.83671 -0.63925,5.60588 -5.58732,8.50565 -2.48402,1.45573 -5.11126,2.65679 -5.83832,2.66902 -0.72706,0.0122 -2.44693,0.90222 -3.82193,1.97776 -2.82966,2.21339 -9.9068,2.6932 -11.8,0.8 -0.66,-0.66 -1.2,-2.8626 -1.2,-4.89466 0,-3.93898 3.53705,-16.5795 5.21654,-18.64261 0.55397,-0.68049 0.74599,-1.91799 0.42672,-2.75 -0.79983,-2.08432 -19.19404,-2.14509 -24.13713,-0.0797 -1.88629,0.78815 -5.58434,1.7504 -8.21788,2.13835 -4.35969,0.64223 -5.54902,1.48732 -13.28825,9.44205 -4.675,4.80518 -10.47302,10.03042 -12.88448,11.61165 -2.41147,1.58123 -5.56147,3.66009 -7,4.6197 C 840.64134,195.56226 836.46112,195.46112 834,193 Z M 173.17431,176.68555 c -1.22672,-1.30579 -2.16714,-3.59379 -2.15786,-5.25 0.0237,-4.23016 4.01856,-10.72386 7.30912,-11.88109 3.6018,-1.26668 5.49866,-0.053 7.41113,4.74189 1.74442,4.3736 0.71214,7.98208 -3.48375,12.17797 -3.14515,3.14516 -6.25439,3.2175 -9.07864,0.21123 z M 107.52038,60.032971 c -1.67286,-2.70674 0.5105,-5.567124 6.20713,-8.131873 3.17487,-1.429396 7.57249,-3.432868 9.77249,-4.45216 2.2,-1.019292 6.025,-2.398645 8.5,-3.065228 2.475,-0.666584 7.06021,-1.932518 10.18936,-2.813187 9.9754,-2.80748 24.90768,-4.558928 38.81064,-4.552205 11.23382,0.0054 14.98564,0.417513 22.35021,2.454828 4.86762,1.346565 9.46821,2.961192 10.22354,3.58806 2.30587,1.913703 2.86123,7.625981 1.01532,10.443207 -2.06972,3.15878 -4.76954,3.178064 -12.81927,0.09156 -8.39835,-3.220172 -18.42138,-4.733695 -35.33656,-5.335986 -11.24715,-0.400471 -14.65471,-0.201594 -17,0.992178 -1.61328,0.821175 -5.63277,1.82175 -8.9322,2.2235 -3.29943,0.40175 -7.13998,1.320498 -8.53455,2.041662 -1.39458,0.721164 -4.29429,1.641139 -6.4438,2.044389 -2.1495,0.403251 -5.28395,1.533833 -6.96544,2.512406 -4.07575,2.37196 -10.1187,3.444475 -11.03687,1.958845 z"
       id="path1" />
  </g>
</svg>
