<?xml version="1.0" encoding="UTF-8" standalone="no"?>
<!-- Created with Inkscape (http://www.inkscape.org/) -->

<svg
   version="1.1"
   id="svg1"
   width="1250"
   height="438"
   viewBox="0 0 1250 438"
   sodipodi:docname="signature.svg"
   inkscape:version="1.3 (0e150ed6c4, 2023-07-21)"
   xmlns:inkscape="http://www.inkscape.org/namespaces/inkscape"
   xmlns:sodipodi="http://sodipodi.sourceforge.net/DTD/sodipodi-0.dtd"
   xmlns="http://www.w3.org/2000/svg"
   xmlns:svg="http://www.w3.org/2000/svg">
  <defs
     id="defs1" />
  <sodipodi:namedview
     id="namedview1"
     pagecolor="#ffffff"
     bordercolor="#000000"
     borderopacity="0.25"
     inkscape:showpageshadow="2"
     inkscape:pageopacity="0.0"
     inkscape:pagecheckerboard="0"
     inkscape:deskcolor="#d1d1d1"
     showgrid="false"
     inkscape:zoom="0.7896"
     inkscape:cx="600.93718"
     inkscape:cy="243.79433"
     inkscape:window-width="1920"
     inkscape:window-height="1057"
     inkscape:window-x="-8"
     inkscape:window-y="-8"
     inkscape:window-maximized="1"
     inkscape:current-layer="svg1" />
  <g
     inkscape:groupmode="layer"
     id="layer2"
     inkscape:label="vector">
    <path
       style="fill:#000000"
       d="m 1152.5,409.87639 c -33.3119,-1.8767 -65.3974,-13.95978 -96.0227,-26.61604 0.5175,-20.72052 55.8657,14.89977 75.5227,10.93481 19.5171,2.18053 40.4722,1.98152 59.7673,0.0507 16.5969,-3.66123 23.3967,-24.30805 6.7319,-33.11156 -38.2279,-22.6936 -80.7712,-36.66143 -122.6995,-51.17819 -30.1028,-6.52189 -61.7547,-19.5586 -91.94679,-19.63454 -54.15227,24.41221 -109.2646,46.41058 -167.28868,59.61485 -111.87877,33.7153 -229.60675,46.39068 -346.27361,41.71038 -34.13061,-2.70698 -68.378,-5.18561 -101.79062,-10.14326 -41.41101,-4.51631 -84.24124,-11.88031 -121.3183,-31.72262 -18.72458,-20.67073 6.68326,-48.50242 26.49421,-57.55162 64.36638,-29.14727 135.49296,-38.37155 204.92057,-46.37946 89.95861,-6.55063 180.50403,-9.47816 270.45254,-0.89935 63.37322,-0.38487 124.78208,8.2236 186.87961,18.67099 19.26839,3.31922 38.68628,9.60198 58.41445,10.37853 53.33642,-21.54993 107.98622,-45.96075 149.74782,-86.18575 6.8836,-5.27492 10.5794,-35.69051 0.2951,-25.60513 -10.5158,14.99641 -37.2206,39.50179 -54.2122,20.66556 3.1172,-44.69068 -33.0569,13.03852 -57.5493,5.30236 -13.4375,-8.22114 -18.5435,-45.44925 -30.7272,-15.53135 -5.19116,11.43311 -29.74602,36.23959 -35.87926,14.64957 -0.6976,-19.832 45.46806,-36.41622 32.10677,-49.19832 -9.93634,-0.9992 -38.58869,22.90342 -28.01857,3.62328 12.80025,-7.32639 32.96066,-22.34091 44.87086,-5.35008 21.7957,-14.75907 48.3326,-32.64877 76.0229,-28.15616 -1.1841,20.22295 -33.046,7.91245 -45.4044,19.89071 -19.3534,10.93404 -44.5422,17.86127 -15.1305,27.84008 5.8001,46.34924 43.4265,2.16498 63.5407,-6.37602 9.7342,-7.04981 18.7062,-23.57667 31.7942,-21.36875 -0.9408,13.82901 -24.2729,21.321 -23.4269,38.83155 -5.7094,19.58651 18.9167,12.75593 25.5376,2.08075 23.2229,-13.14143 6.2577,-35.51912 8.4383,-55.36689 4.0918,-15.169648 20.9619,-0.70466 22.7141,8.4817 3.9733,13.73968 -11.0847,27.50062 1.2896,39.99872 3.4241,33.47753 -33.7978,50.73479 -56.286,67.34886 -28.5571,18.86756 -61.6973,33.88314 -91.066,48.85608 26.8597,9.53745 59.7004,14.87638 88,25.08458 39.8982,14.28913 82.2547,28.70437 115.5605,55.55872 12.5907,10.01331 21.7764,31.10748 4.2576,41.77006 -19.2362,14.49118 -45.6927,8.99387 -68.3188,9.03226 z m -566,-29.74898 c 35.26097,-3.48047 71.63182,-4.2248 106.49543,-13.13377 51.24389,-5.23748 100.89959,-22.55718 150.79832,-35.19126 42.89385,-11.18918 83.15206,-29.2385 123.51333,-45.82863 -18.59032,-7.94187 -39.75504,-4.09814 -58.9895,-9.92416 -64.06269,-10.63886 -129.26667,-15.44563 -193.87107,-18.06993 -73.165,-5.58185 -147.12752,-0.33969 -220.47698,2.4527 -44.96833,5.281 -91.52233,8.82436 -135.17172,18.65259 -37.54102,8.36495 -82.90828,14.89582 -108.13943,46.91345 -10.01894,31.58833 45.39694,27.68071 63.55451,35.9535 86.50046,14.47639 174.26149,22.00542 262.0573,19.46682 3.46821,-0.29811 7.14292,0.87251 10.22981,-1.29131 z M 988.0108,174.83755 c 18.1587,-20.84544 1.46855,-10.15076 -8.98035,4.15722 -6.13037,11.71645 9.32645,-5.98758 8.98035,-4.15722 z m 161.183,-46.94177 c -6.5756,-30.181976 -2.0948,25.60578 0,0 z M 21.431042,213.23469 C 4.8599964,188.67522 24.480624,158.11114 38.796377,137.5 52.45657,126.1134 61.767222,111.33849 60.009897,93.137247 61.465093,74.969798 35.822948,91.648615 31.219309,100.31562 20.200102,119.49491 7.8226209,107.168 26.776139,95.055407 40.881938,89.512973 54.114708,66.165451 69.656661,74.551693 80.450638,92.673749 72.48022,104.20739 96.777315,81.041785 111.34156,64.808617 119.47771,93.97278 124.46708,89.788769 136.97739,78.611584 152.21539,53.865012 170.44123,67.5 c 4.1184,42.29327 -19.42443,82.56944 -19.95759,125.03273 -7.4451,16.14972 -20.66033,1.37308 -12.85471,-11.20964 4.10561,-34.78411 18.07174,-69.74736 18.70357,-104.106199 -13.66845,-1.602193 -31.18694,19.123199 -36.27864,32.834279 -2.57411,33.72798 -5.73019,72.99411 -34.984587,95.08836 -22.018549,-9.23914 0.975326,-47.02499 6.119276,-64.03665 7.65025,-14.70885 26.537261,-39.10216 10.684771,-54.088726 -11.271455,9.21017 -26.521494,18.327876 -31.430694,31.900336 -9.407712,33.60533 -15.996437,74.62925 -47.424761,95.0702 z m 9.372475,-17.05955 c 9.794964,-10.34446 31.560507,-80.00979 9.359834,-47.08876 -5.001481,3.11111 -30.106521,76.06198 -9.359834,47.08876 z M 88.190963,192.25 c 8.794724,-7.61373 20.900847,-72.52405 9.297563,-44.4472 -2.268494,10.2776 -22.764017,46.67579 -9.297563,44.4472 z M 578.5,197.17201 c -18.91683,0.33169 -13.33005,-28.32264 -20.32459,-29.56418 -24.86675,16.2003 -56.5759,34.91707 -87.06444,24.28213 -8.64657,-15.74092 -23.30964,5.50702 -37.24778,1.84508 -21.72068,6.41658 -39.46011,-12.51451 -43.92575,-29.73504 -18.21206,10.18468 -39.36966,25.9701 -62.05677,21.88704 -18.89077,-8.10318 0.57398,-45.23817 -25.49869,-15.94329 -11.52545,9.76229 -42.00137,28.25208 -50.10232,6.38113 C 253.50399,136.03817 292.86647,109.91524 315.56607,80.5 324.90443,67.687211 344.03427,53.026371 338.8,36.2 321.31788,32.831589 302.22141,50.188972 292.66172,64.655264 273.6935,83.016018 285.524,47.688814 298.40177,43.757532 310.96057,35.861104 333.09348,17.817396 347.0449,31.128506 358.29508,49.265921 338.62945,68.805592 328.4528,82.928229 305.84865,112.17998 271.56229,137.71047 264,175.6 c 23.57568,5.0383 51.7961,-25.17336 64.9298,-43.24827 17.72917,-31.62177 28.74672,-77.247481 68.05705,-88.571846 19.63166,4.371876 7.01177,30.371638 -1.90127,39.720116 -15.37906,30.4026 -56.99913,41.17564 -62.01455,76.91841 -11.96937,31.73289 30.92706,11.86902 42.92897,2.54905 31.70303,-17.26014 30.57907,-59.67062 52.65335,-85.820959 0.0522,-25.717149 38.56737,-30.490103 16.87478,-2.737869 -16.21427,32.096378 -43.34084,63.627318 -40.81772,101.500448 13.23354,18.0303 42.71469,7.72576 58.52573,0.34092 8.77777,-29.37845 30.89216,-61.24518 62.60172,-68.61242 19.07922,3.90513 -1.92172,28.78381 -9.88253,37.46287 -7.5634,11.57249 -57.10989,36.53934 -23.17415,40.73808 C 520.00459,185.37671 544.60675,166.37291 566,150.92209 580.85735,107.01634 610.08943,65.29301 650.46628,41 c 19.7673,-1.781504 11.26885,24.543054 4.40119,33.888525 -19.43542,30.540125 -47.08167,54.417315 -74.78183,77.305045 -3.67932,9.59344 -9.87952,40.84794 8.97532,34.09364 28.91202,-10.04607 15.8648,-26.83025 15.52118,-44.10917 3.62706,-12.72929 24.78606,-15.13223 22.69972,0.98274 -2.16791,21.81685 32.01588,-1.9311 40.39059,-9.57495 14.25921,-10.22665 20.59072,-28.73815 31.79367,-40.166683 14.37538,3.175494 32.85261,10.915823 40.84602,-7.57405 6.88046,-7.550945 28.847,-20.018087 31.88786,-4.69461 -1.62726,19.541033 -24.87592,24.755983 -38.79043,31.322563 -9.14019,17.79484 -32.85799,42.95428 -19.33964,62.02695 16.91772,2.11305 32.41153,-3.59286 47.89014,-9.65011 5.5289,-23.67782 21.50381,-48.02141 44.09126,-57.28161 29.47093,-0.078 2.29984,35.40305 -10.13451,44.96621 -9.34528,6.73062 -35.62311,26.21338 -11.93374,29.46551 17.57686,-9.48856 44.23636,-15.63553 11.18754,4.24978 -25.21252,15.54443 -34.16892,-26.95017 -61.13072,-3.62611 -17.21078,7.21011 -39.66882,-6.06709 -35.31691,-25.99035 -5.5015,-16.54265 34.53816,-43.56022 12.11097,-46.92442 -26.49241,-3.15301 -34.86228,43.45522 -65.26301,45.89855 -26.12427,-3.65337 -27.94903,22.12123 -44.38393,34.9375 -6.87166,3.46692 -14.71274,8.61666 -22.68702,6.62706 z M 487.97095,160 c 9.63984,-1.56689 44.61615,-50.9591 19.68795,-36.12984 C 500.11092,123.02542 470.36715,173.66847 487.97095,160 Z M 791.6711,144.25 c 6.45283,-4.50579 29.93897,-32.51802 11.25313,-23.04314 -12.05262,4.33837 -34.19184,45.86949 -12.83341,24.6093 z M 619,143.44098 c -1.64219,-9.93412 -2.27546,10.16788 0,0 z m -23.82392,-15.33595 c 21.29854,-20.11946 48.53815,-41.943575 52.07048,-72.834616 -12.46804,-0.660652 -20.43841,17.3202 -29.64866,25.173988 -2.46367,4.438465 -46.98844,69.256068 -22.42182,47.660628 z M 357.35738,111.75 c 9.46607,-9.97444 57.22046,-51.148092 34.26519,-54.991008 -18.80283,15.537436 -31.51481,38.55895 -40.07891,60.240998 l 5.81372,-5.25 z M 753.84275,91.080225 c 28.77303,-20.376232 -16.16175,0.56117 0,0 z m 80.1061,101.868625 c -4.14639,-13.35782 19.51307,-19.59534 26.84216,-29.03801 15.13006,-19.19766 19.27358,-38.04187 -4.28009,-11.84503 -29.11436,7.61302 40.8355,-40.94716 32.60809,-35.64723 19.64737,-11.5518 5.7062,16.82382 1.20905,25.19524 -27.792,22.01338 19.63064,17.60607 27.25968,7.80484 6.61411,-8.01432 16.03989,-40.25877 28.85604,-25.09808 C 948.11705,135.39102 900.01937,189.51315 932,177 c 2.3011,11.15538 -26.20845,23.61835 -28,10.15863 10.25067,-21.03502 3.22993,-27.20127 -18.69342,-22.65781 -14.85924,1.90175 -22.48423,15.5769 -34.19106,24.1223 -3.7208,2.59337 -12.62741,10.58828 -17.16667,4.32573 z m -660.77454,-16.2633 c -11.52429,-15.93602 23.0055,-24.3328 11.11345,-2.80501 -2.44867,3.88868 -7.55662,8.40895 -11.11345,2.80501 z M 107.578,59.245743 c 10.10847,-16.944157 42.22771,-19.895916 63.12111,-21.708683 14.77479,-0.874774 31.78465,-1.856363 44.155,6.96294 5.19148,20.502821 -18.59435,4.899156 -29.11021,4.97821 -26.88341,-4.941615 -52.48542,2.416731 -77.54256,11.731522 z"
       id="path1" />
  </g>
</svg>
